<svg xmlns="http://www.w3.org/2000/svg" viewBox="0 0 520 220" fill="none">
  <!-- Sports car silhouette -->
  <g transform="translate(260, 10)" fill="black">
    <path d="M30 55 C45 30, 80 20, 120 22 C155 24, 185 30, 210 42 C220 46, 225 52, 222 58 L215 62 C200 58, 175 54, 145 52 C115 50, 80 52, 55 60 C42 64, 32 68, 28 72 L15 72 C12 68, 10 62, 15 58 Z" opacity="0.85"/>
    <ellipse cx="55" cy="74" rx="14" ry="14" fill="black" opacity="0.85"/>
    <ellipse cx="185" cy="74" rx="14" ry="14" fill="black" opacity="0.85"/>
    <path d="M70 52 C80 35, 100 28, 130 28 C160 28, 175 35, 180 52 Z" fill="black" opacity="0.6"/>
  </g>
  <!-- BLACKSAND -->
  <text x="10" y="155" font-family="'Arial Black', 'Impact', sans-serif" font-size="88" font-weight="900" fill="black" letter-spacing="2">BLACKSAND</text>
  <!-- AUTO &amp; CAR SPA -->
  <text x="68" y="192" font-family="'Arial', sans-serif" font-size="24" font-weight="400" fill="black" letter-spacing="12">AUTO&amp;CAR SPA</text>
</svg>
